<svg id="Capa_1" enable-background="new 0 0 511.168 511.168" height="512" viewBox="0 0 511.168 511.168" width="512" xmlns="http://www.w3.org/2000/svg"><g><circle cx="256.141" cy="255.125" fill="#b289c9" r="200.506"/><path d="m155.999 255.125c0-93.408 63.873-171.897 150.325-194.174-16.038-4.133-32.853-6.332-50.182-6.332-110.737 0-200.506 89.77-200.506 200.506s89.77 200.506 200.506 200.506c17.329 0 34.144-2.199 50.182-6.332-86.452-22.277-150.325-100.766-150.325-194.174z" fill="#a274bf"/><path d="m68.491 400.8c-8.652-4.044-15.192-10.17-19.453-18.537-1.075-2.11-4.112-1.935-4.957.277-3.065 8.018-9.551 14.097-19.631 18.225-2.185.895-2.241 4.026-.084 4.988 8.946 3.991 15.577 10.297 19.404 19.413.863 2.056 3.781 2.178 4.761.174 4.167-8.518 10.837-15.045 20.022-19.572 2.077-1.024 2.037-3.987-.062-4.968z" fill="#b289c9"/><circle cx="256.72" cy="255.624" fill="#a274bf" r="144.812"/><path d="m210.997 393.061c-34.083-35.942-54.999-84.494-54.999-137.936 0-52.719 20.349-100.682 53.617-136.472-56.851 19.548-97.707 73.485-97.707 136.971.001 63.998 41.519 118.294 99.089 137.437z" fill="#925cb4"/><path d="m390.696 472.933h-269.224v-27.831c0-7.221 5.853-13.074 13.074-13.074h243.075c7.22 0 13.074 5.853 13.074 13.074v27.831z" fill="#7a6d79"/><path d="m405.808 503.668h-299.448v-27.453c0-6.231 5.051-11.281 11.281-11.281h276.884c6.23 0 11.281 5.051 11.281 11.281v27.453z" fill="#685e68"/><path d="m187.542 432.029h-52.996c-7.221 0-13.074 5.853-13.074 13.074v27.831h52.996v-27.831c.001-7.221 5.854-13.074 13.074-13.074z" fill="#685e68"/><path d="m170.638 464.933h-52.996c-6.231 0-11.281 5.051-11.281 11.281v27.453h52.996v-27.453c0-6.23 5.05-11.281 11.281-11.281z" fill="#554e56"/><g><path d="m422.854 511.168h-332.799c-4.143 0-7.5-3.358-7.5-7.5s3.357-7.5 7.5-7.5h332.799c4.143 0 7.5 3.358 7.5 7.5s-3.358 7.5-7.5 7.5z" fill="#554e56"/></g><g><path d="m474.9 371.031c-4.143 0-7.5-3.358-7.5-7.5v-5.667c0-4.142 3.357-7.5 7.5-7.5s7.5 3.358 7.5 7.5v5.667c0 4.142-3.357 7.5-7.5 7.5z" fill="#b289c9"/></g><g><path d="m496.568 388.365h-5.667c-4.143 0-7.5-3.358-7.5-7.5s3.357-7.5 7.5-7.5h5.667c4.143 0 7.5 3.358 7.5 7.5s-3.357 7.5-7.5 7.5z" fill="#b289c9"/></g><g><path d="m473.567 410.033c-4.143 0-7.5-3.358-7.5-7.5v-5.667c0-4.142 3.357-7.5 7.5-7.5s7.5 3.358 7.5 7.5v5.667c0 4.142-3.357 7.5-7.5 7.5z" fill="#b289c9"/></g><g><path d="m457.566 387.032h-5.667c-4.143 0-7.5-3.358-7.5-7.5s3.357-7.5 7.5-7.5h5.667c4.143 0 7.5 3.358 7.5 7.5s-3.357 7.5-7.5 7.5z" fill="#b289c9"/></g><g><path d="m121.269 34.484c-4.143 0-7.5-3.358-7.5-7.5v-19.484c0-4.142 3.357-7.5 7.5-7.5s7.5 3.358 7.5 7.5v19.484c0 4.142-3.358 7.5-7.5 7.5z" fill="#fee45a"/></g><g><path d="m58.914 54.706c-1.919 0-3.839-.732-5.304-2.197l-13.777-13.778c-2.929-2.929-2.929-7.678 0-10.606 2.93-2.929 7.678-2.929 10.607 0l13.777 13.777c2.929 2.929 2.929 7.678 0 10.606-1.464 1.465-3.384 2.198-5.303 2.198z" fill="#fee45a"/></g><g><path d="m29.123 113.096h-19.484c-4.143 0-7.5-3.358-7.5-7.5s3.357-7.5 7.5-7.5h19.484c4.143 0 7.5 3.358 7.5 7.5s-3.357 7.5-7.5 7.5z" fill="#fee45a"/></g><g><path d="m389.899 34.484c-4.143 0-7.5-3.358-7.5-7.5v-19.484c0-4.142 3.357-7.5 7.5-7.5s7.5 3.358 7.5 7.5v19.484c0 4.142-3.357 7.5-7.5 7.5z" fill="#fee45a"/></g><g><path d="m452.254 54.706c-1.919 0-3.839-.732-5.304-2.197-2.929-2.929-2.929-7.678 0-10.606l13.777-13.777c2.93-2.929 7.678-2.929 10.607 0s2.929 7.678 0 10.606l-13.777 13.777c-1.464 1.464-3.384 2.197-5.303 2.197z" fill="#fee45a"/></g><g><path d="m501.529 113.096h-19.484c-4.143 0-7.5-3.358-7.5-7.5s3.357-7.5 7.5-7.5h19.484c4.143 0 7.5 3.358 7.5 7.5s-3.357 7.5-7.5 7.5z" fill="#fee45a"/></g><g fill="#814ba2"><path d="m395.474 322.003c-5.281-3.144-9.618-7.217-12.963-12.267-2.225-3.359-7.242-3.287-9.266.196-2.827 4.865-7.169 8.877-13.077 12.034-3.719 1.987-3.807 7.343-.184 9.499 5.306 3.158 9.584 7.344 12.697 12.698 2.046 3.518 7.116 3.735 9.316.312 3.386-5.269 7.906-9.635 13.564-13.097 3.491-2.135 3.429-7.281-.087-9.375z"/><path d="m141.836 193.839c-5.281-3.144-9.618-7.217-12.963-12.267-2.225-3.359-7.242-3.287-9.266.196-2.827 4.865-7.169 8.877-13.077 12.034-3.719 1.987-3.807 7.343-.184 9.499 5.306 3.158 9.584 7.344 12.697 12.698 2.046 3.518 7.116 3.735 9.316.312 3.386-5.269 7.906-9.635 13.564-13.097 3.491-2.135 3.429-7.281-.087-9.375z"/></g></g></svg>