<?xml version="1.0" encoding="iso-8859-1"?>
<!-- Generator: Adobe Illustrator 19.0.0, SVG Export Plug-In . SVG Version: 6.00 Build 0)  -->
<svg version="1.1" id="Capa_1" xmlns="http://www.w3.org/2000/svg" xmlns:xlink="http://www.w3.org/1999/xlink" x="0px" y="0px"
	 viewBox="0 0 512.001 512.001" style="enable-background:new 0 0 512.001 512.001;" xml:space="preserve">
<path style="fill:#FF6C6C;" d="M347.393,195.508c-37.199-46.799-92.699-73.498-152.396-73.498
	c-107.398,0-194.995,87.597-194.995,194.995c0,51.898,20.4,101.098,57.298,137.696c36.6,36.9,85.799,57.3,137.698,57.3
	c107.397,0,194.995-87.599,194.995-194.995C389.991,273.205,374.991,230.006,347.393,195.508z"/>
<path style="fill:#FF4949;" d="M389.991,317.005C389.991,424.402,302.394,512,194.995,512V122.01
	c59.699,0,115.198,26.699,152.396,73.498C374.991,230.006,389.991,273.205,389.991,317.005z"/>
<path style="fill:#EDE9E8;" d="M194.995,182.008c-74.397,0-134.997,60.598-134.997,134.997c0,74.397,60.6,134.997,134.997,134.997
	s134.997-60.6,134.997-134.997C329.992,242.606,269.394,182.008,194.995,182.008z"/>
<path style="fill:#DFD7D5;" d="M329.992,317.005c0,74.397-60.6,134.997-134.997,134.997V182.008
	C269.394,182.008,329.992,242.606,329.992,317.005z"/>
<path style="fill:#FF6C6C;" d="M194.995,242.007c-41.399,0-74.998,33.599-74.998,74.998s33.599,74.998,74.998,74.998
	s74.998-33.599,74.998-74.998S236.395,242.007,194.995,242.007z"/>
<path style="fill:#FF4949;" d="M269.994,317.005c0,41.399-33.599,74.998-74.998,74.998V242.007
	C236.395,242.007,269.994,275.606,269.994,317.005z"/>
<path style="fill:#73BCFF;" d="M510.789,94.211c-2.401-5.7-7.8-9.102-13.801-9.102H426.89V15.012c0-6-3.4-11.4-9.1-13.801
	c-5.4-2.401-11.999-1.199-16.199,3.3L293.394,112.41c-2.701,2.999-4.2,6.599-4.2,10.8v84.598c0,8.401,6.599,15,15,15h84.598
	c4.199,0,7.798-1.5,10.8-4.2L507.488,110.41C511.988,106.209,513.188,99.61,510.789,94.211z"/>
<path style="fill:#3E5959;" d="M378.291,155.008l-67.798,67.798L205.495,327.504c-2.699,3.001-6.599,4.501-10.499,4.501
	s-7.8-1.5-10.499-4.501c-6-5.7-6-15.3,0-21l10.498-10.499l94.198-94.499l67.798-67.796c5.999-6,15.599-6,21.299,0
	C384.291,139.408,384.291,149.008,378.291,155.008z"/>
<path style="fill:#384949;" d="M378.291,155.008l-67.798,67.798L205.495,327.504c-2.699,3.001-6.599,4.501-10.499,4.501v-35.999
	l94.198-94.499l67.798-67.796c5.999-6,15.599-6,21.299,0C384.291,139.408,384.291,149.008,378.291,155.008z"/>
<g>
</g>
<g>
</g>
<g>
</g>
<g>
</g>
<g>
</g>
<g>
</g>
<g>
</g>
<g>
</g>
<g>
</g>
<g>
</g>
<g>
</g>
<g>
</g>
<g>
</g>
<g>
</g>
<g>
</g>
</svg>
