<svg id="Capa_1" enable-background="new 0 0 512 512" height="512" viewBox="0 0 512 512" width="512" xmlns="http://www.w3.org/2000/svg"><path d="m398.639 363.981c-7.434-39.695-22.963-116.365-44.234-188.467 45.192 6.854 86.23 1.825 78.112-24.387-8.858-28.599-139.497-123.769-151.87-132.733-7.982-6.986-16.212-10.88-24.647-10.88-70.157 0-126.199 268.671-142.639 356.466-64.005 13.975-105.846 37.096-105.846 63.257 0 42.663 111.251 77.248 248.485 77.248s248.485-34.585 248.485-77.248c0-26.161-41.841-49.282-105.846-63.256z" fill="#838383"/><path d="m256 486.45c-127.421 0-232.422-29.817-246.791-68.231-1.107 2.959-1.694 5.967-1.694 9.018 0 42.663 111.251 77.248 248.485 77.248s248.485-34.585 248.485-77.248c0-3.051-.588-6.059-1.694-9.018-14.369 38.414-119.37 68.231-246.791 68.231z" fill="#707070"/><path d="m394.9 344.496c-20.453 15.978-74.917 27.406-138.9 27.406s-118.447-11.428-138.9-27.406c-4.079 20.765-6.798 36.102-7.979 42.937-.44 1.303-.675 2.623-.675 3.959 0 22.866 66.062 41.403 147.553 41.403s147.553-18.537 147.553-41.403c0-1.335-.234-2.655-.675-3.959-1.18-6.835-3.899-22.173-7.977-42.937z" fill="#ffe55a"/><path d="m401.59 380.107c-11.489 19.655-72.293 34.652-145.59 34.652s-134.101-14.997-145.59-34.652c-.537 3.012-.97 5.486-1.288 7.326-.44 1.303-.675 2.623-.675 3.958 0 22.866 66.062 41.403 147.553 41.403s147.553-18.537 147.553-41.403c0-1.335-.234-2.655-.675-3.958-.317-1.84-.75-4.314-1.288-7.326z" fill="#ffd500"/><path d="m431.03 147.68c-14.664 21.419-90.217 13.054-138.941-6.99-7.541-3.102-15.85 2.286-16.075 10.437 53.412 29.305 169.678 42.535 156.503 0-.328-1.057-.839-2.215-1.487-3.447z" fill="#707070"/><path d="m283.459 364.281c-8.969.359-18.136.545-27.459.545s-18.49-.186-27.459-.545c-11.403-.456-20.917 8.608-20.917 20.02v39.548c0 10.726 8.44 19.568 19.156 20.025 9.529.406 19.286.617 29.219.617s19.69-.211 29.219-.617c10.716-.457 19.156-9.298 19.156-20.025v-39.548c.002-11.412-9.512-20.476-20.915-20.02zm-7.749 51.812c-6.299.342-12.903.525-19.71.525s-13.411-.182-19.71-.525v-24.366c6.299.342 12.903.525 19.71.525s13.411-.183 19.71-.525z" fill="#ff9838"/><path d="m285.219 425.838c-9.529.406-19.286.617-29.219.617s-19.69-.211-29.219-.617c-10.716-.457-19.156-9.298-19.156-20.025v18.035c0 10.726 8.44 19.568 19.156 20.025 9.529.406 19.286.617 29.219.617s19.69-.211 29.219-.617c10.716-.457 19.156-9.298 19.156-20.025v-18.035c.001 10.727-8.439 19.569-19.156 20.025z" fill="#ff8709"/><path d="m235.882 423.596c6.542.356 13.311.536 20.118.536s13.576-.181 20.118-.536c3.986-.217 7.107-3.512 7.107-7.503v-24.366c0-4.246-3.679-7.736-7.923-7.503-12.543.682-26.061.682-38.604 0-4.243-.234-7.923 3.259-7.923 7.503v24.366c0 3.991 3.121 7.286 7.107 7.503zm7.923-24.025c8.048.259 16.343.259 24.39 0v9.329c-8.037.269-16.353.269-24.39 0z"/><path d="m472.463 380.767c-3.688-1.904-8.22-.457-10.124 3.231s-.457 8.221 3.231 10.124c20.25 10.452 31.401 22.212 31.401 33.115 0 16.571-25.232 34.308-67.496 47.447-46.23 14.372-107.838 22.287-173.475 22.287-31.983 0-63.086-1.878-92.444-5.581-4.113-.521-7.876 2.398-8.396 6.515s2.397 7.876 6.515 8.396c29.98 3.782 61.715 5.7 94.325 5.7 67.109 0 130.301-8.156 177.936-22.964 51.07-15.878 78.064-37.247 78.064-61.8 0-17.294-13.302-32.929-39.537-46.47z"/><path d="m134.299 486.971c-71.339-12.66-119.27-36.666-119.27-59.734 0-19.424 34.498-39.935 88.859-53.343-.868 4.797-1.566 8.759-2.084 11.746-.58 1.904-.873 3.835-.873 5.751 0 12.391 11.145 22.957 33.125 31.404 17.853 6.861 41.903 11.984 69.748 14.884 4.558 7.881 12.909 13.286 22.656 13.702 9.704.413 49.374.413 59.078 0 9.747-.416 18.099-5.821 22.656-13.702 27.845-2.901 51.894-8.024 69.748-14.885 21.98-8.447 33.125-19.013 33.125-31.404 0-1.916-.293-3.847-.873-5.751-.459-2.649-1.161-6.636-2.09-11.752 11.079 2.721 21.398 5.737 30.786 9.003 4.076 1.417 8.619-1.001 9.731-5.165 1.002-3.75-1.129-7.756-4.793-9.03-11.674-4.062-24.686-7.741-38.726-10.963-7.342-38.677-21.401-107.111-40.266-173.23 8.024.891 15.862 1.378 23.267 1.378 18.923-.001 35.041-3.156 44.306-10.721 7.935-6.479 10.523-15.803 7.284-26.257-2.69-8.685-13.605-26.152-77.069-77.349-34.808-28.081-68.42-52.559-77.258-59.02-10.028-8.721-19.457-12.533-29.366-12.533-37.164 0-72.183 58.326-107.057 178.313-1.098 3.78 1.007 7.874 4.718 9.184 4.018 1.418 8.527-.903 9.715-4.989 42.353-145.721 76.211-167.479 92.624-167.479 6.201 0 12.479 3.366 19.57 8.9 8.088 6.313 144.301 111.768 149.769 129.421 1.777 5.739-.119 8.279-2.433 10.168-8.812 7.195-32.734 9.215-62.434 5.274-29.809-3.956-60.786-13.249-80.844-24.254-3.639-1.998-8.206-.665-10.203 2.974-1.996 3.639-.665 8.206 2.974 10.203 18.907 10.374 47.684 19.586 76.132 24.471 16.759 57.612 29.873 117.87 38.037 158.946-15.785 9.825-47.638 17.778-85.56 21.251-5.098-3.891-11.329-5.87-17.849-5.611 0 0 0 0-.001 0-17.848.715-36.467.715-54.316 0-6.525-.26-12.753 1.719-17.85 5.611-37.918-3.472-69.767-11.424-85.554-21.247 6.795-34.186 17.041-81.8 29.908-129.834 1.074-4.009-1.305-8.129-5.315-9.203-4.007-1.072-8.129 1.305-9.203 5.315-15.713 58.656-27.358 115.526-33.946 150.324-30.604 7.031-56.202 16.264-74.24 26.814-21.66 12.668-32.642 27.029-32.642 42.685 0 17.094 13.006 32.576 38.657 46.016 22.673 11.88 54.837 21.74 93.017 28.516 4.085.724 8.09-2.127 8.734-6.225.627-3.991-2.125-7.866-6.109-8.573zm261.74-95.58c0 8.769-26.823 24.061-84.148 30.756v-37.847c0-2.682-.385-5.298-1.117-7.794 33.765-3.708 61.368-10.675 78.829-19.823 2.972 15.509 6.436 33.776 6.436 34.708zm-168.324-19.612c.175 0 .35.003.525.011 18.247.73 37.272.73 55.519 0 7.031-.287 13.102 5.453 13.102 12.511v39.548c0 6.733-5.254 12.231-11.962 12.517-18.985.809-38.813.809-57.798 0-6.708-.286-11.962-5.784-11.962-12.517v-39.548c0-6.852 5.737-12.522 12.576-12.522zm-26.489 4.728c-.731 2.495-1.117 5.111-1.117 7.794v37.847c-57.325-6.695-84.148-21.987-84.148-30.756 0-.931 3.403-18.868 6.439-34.705 17.462 9.146 45.064 16.112 78.826 19.82z"/></svg>